<svg width="16" height="16" viewBox="0 0 16 16" fill="none" xmlns="http://www.w3.org/2000/svg">
<path d="M1.25 3.5C1.54323 3.5 1.80944 3.67095 1.93164 3.9375L4 8.4502L6.06836 3.9375L6.12012 3.8418C6.25697 3.63053 6.49343 3.5 6.75 3.5H7.25C7.66421 3.5 8 3.83579 8 4.25V12.5H6.5V6.59473L4.68164 10.5625C4.55944 10.8291 4.29323 11 4 11C3.70677 11 3.44056 10.8291 3.31836 10.5625L1.5 6.59473V12.5H0V4.25C0 3.83579 0.335786 3.5 0.75 3.5H1.25ZM13 3.5V9.61133L14.6641 7.53125L15.8359 8.46875L12.8359 12.2188C12.6936 12.3967 12.4778 12.5 12.25 12.5C12.0222 12.5 11.8064 12.3967 11.6641 12.2188L8.66406 8.46875L9.83594 7.53125L11.5 9.61133V3.5H13Z" fill="#292A2E"/>
</svg>
