<svg width="16" height="16" viewBox="0 0 16 16" fill="none" xmlns="http://www.w3.org/2000/svg">
<path d="M9.5 9C10.6046 9 11.5 9.89543 11.5 11V13.9375C11.5 14.5243 11.0243 15 10.4375 15H9.0625C8.4757 15 8 14.5243 8 13.9375V12.5625C8 11.9757 8.4757 11.5 9.0625 11.5H10V11C10 10.7239 9.77614 10.5 9.5 10.5H9V9H9.5Z" fill="#292A2E"/>
<path d="M6.9375 1C7.5243 1 8 1.4757 8 2.0625V3.4375C8 4.0243 7.5243 4.5 6.9375 4.5H6V5C6 5.27614 6.22386 5.5 6.5 5.5H7V7H6.5C5.39543 7 4.5 6.10457 4.5 5V2.0625C4.5 1.4757 4.9757 1 5.5625 1H6.9375Z" fill="#292A2E"/>
<path d="M14 9C15.1046 9 16 9.89543 16 11V13.9375C16 14.5243 15.5243 15 14.9375 15H13.5625C12.9757 15 12.5 14.5243 12.5 13.9375V12.5625C12.5 11.9757 12.9757 11.5 13.5625 11.5H14.5V11C14.5 10.7239 14.2761 10.5 14 10.5H13.5V9H14Z" fill="#292A2E"/>
<path d="M2.4375 1C3.0243 1 3.5 1.4757 3.5 2.0625V3.4375C3.5 4.0243 3.0243 4.5 2.4375 4.5H1.5V5C1.5 5.27614 1.72386 5.5 2 5.5H2.5V7H2C0.895431 7 0 6.10457 0 5V2.0625C0 1.4757 0.475697 1 1.0625 1H2.4375Z" fill="#292A2E"/>
</svg>
