<svg width="16" height="16" viewBox="0 0 16 16" fill="none" xmlns="http://www.w3.org/2000/svg">
<path d="M5.44531 12.8838C6.75199 11.2403 9.24801 11.2403 10.5547 12.8838C11.2434 13.7503 12.5685 13.769 13.291 12.915C13.913 12.18 14.8316 11.7501 15.7979 11.75H16V13.25H15.7979C15.2763 13.2501 14.7757 13.4832 14.4365 13.8838C13.1103 15.4511 10.6657 15.4338 9.38086 13.8174C8.6747 12.929 7.3253 12.929 6.61914 13.8174C5.33429 15.4338 2.88967 15.4511 1.56348 13.8838C1.22434 13.4832 0.723652 13.2501 0.202148 13.25H0V11.75H0.202148C1.16839 11.7501 2.08702 12.18 2.70898 12.915C3.43153 13.769 4.75657 13.7503 5.44531 12.8838ZM11.5 3.5C11.5 3.52291 11.5142 3.47482 11.3926 3.35645C11.2686 3.23578 11.0505 3.09228 10.7197 2.95605C10.0615 2.68503 9.1003 2.5 8 2.5C6.8997 2.5 5.93848 2.68503 5.28027 2.95605C4.94946 3.09228 4.73138 3.23578 4.60742 3.35645C4.48583 3.47482 4.5 3.52291 4.5 3.5C4.5 3.47709 4.48583 3.52518 4.60742 3.64355C4.73138 3.76422 4.94946 3.90772 5.28027 4.04395C5.93848 4.31497 6.8997 4.5 8 4.5C9.1003 4.5 10.0615 4.31497 10.7197 4.04395C11.0505 3.90772 11.2686 3.76422 11.3926 3.64355C11.5142 3.52518 11.5 3.47709 11.5 3.5ZM13 9.43848C13.1042 9.36002 13.2025 9.26966 13.291 9.16504C13.913 8.43 14.8316 8.00011 15.7979 8H16V9.5H15.7979C15.2763 9.50011 14.7757 9.73318 14.4365 10.1338C13.8797 10.7918 13.1243 11.1714 12.3438 11.2695C12.1302 11.2964 11.9153 11.2293 11.7539 11.0869C11.5927 10.9446 11.5001 10.7404 11.5 10.5254V5.33594C11.431 5.36806 11.3621 5.4014 11.291 5.43066C10.411 5.79301 9.24691 6 8 6C6.75309 6 5.58898 5.79301 4.70898 5.43066C4.63792 5.4014 4.569 5.36806 4.5 5.33594V10.5254C4.49988 10.7404 4.40725 10.9446 4.24609 11.0869C4.08471 11.2293 3.86978 11.2964 3.65625 11.2695C2.87571 11.1714 2.12025 10.7918 1.56348 10.1338C1.22434 9.73318 0.723652 9.50011 0.202148 9.5H0V8H0.202148C1.16839 8.00011 2.08702 8.43 2.70898 9.16504C2.79751 9.26966 2.89579 9.36002 3 9.43848V3.5C3 2.99387 3.25204 2.58161 3.56055 2.28125C3.86664 1.98326 4.27087 1.74977 4.70898 1.56934C5.58898 1.20699 6.75309 1 8 1C9.24691 1 10.411 1.20699 11.291 1.56934C11.7291 1.74977 12.1334 1.98326 12.4395 2.28125C12.748 2.58161 13 2.99387 13 3.5V9.43848Z" fill="#292A2E"/>
</svg>
