<svg width="16" height="16" viewBox="0 0 16 16" fill="none" xmlns="http://www.w3.org/2000/svg">
<path d="M11.5 13.25C11.5 12.9739 11.2761 12.75 11 12.75C10.7239 12.75 10.5 12.9739 10.5 13.25C10.5 13.5261 10.7239 13.75 11 13.75C11.2761 13.75 11.5 13.5261 11.5 13.25ZM8 7.5C7.72386 7.5 7.5 7.72386 7.5 8C7.5 8.18473 7.59973 8.34722 7.75195 8.43457C7.82429 8.47599 7.90845 8.5 8 8.5C8.27614 8.5 8.5 8.27614 8.5 8C8.5 7.81527 8.40027 7.65278 8.24805 7.56543C8.17571 7.52401 8.09155 7.5 8 7.5ZM4.5 13.25C4.5 13.5261 4.72386 13.75 5 13.75C5.27614 13.75 5.5 13.5261 5.5 13.25C5.5 13.0653 5.40027 12.9028 5.24805 12.8154C5.17571 12.774 5.09155 12.75 5 12.75C4.72386 12.75 4.5 12.9739 4.5 13.25ZM14.5 8C14.5 7.72386 14.2761 7.5 14 7.5C13.7239 7.5 13.5 7.72386 13.5 8C13.5 8.27614 13.7239 8.5 14 8.5C14.2761 8.5 14.5 8.27614 14.5 8ZM1.5 8C1.5 8.27614 1.72386 8.5 2 8.5C2.27614 8.5 2.5 8.27614 2.5 8C2.5 7.72386 2.27614 7.5 2 7.5C1.72386 7.5 1.5 7.72386 1.5 8ZM11.5 2.75C11.5 2.47386 11.2761 2.25 11 2.25C10.7239 2.25 10.5 2.47386 10.5 2.75C10.5 2.93473 10.5997 3.09722 10.752 3.18457C10.8243 3.22599 10.9085 3.25 11 3.25C11.2761 3.25 11.5 3.02614 11.5 2.75ZM4.5 2.75C4.5 3.02614 4.72386 3.25 5 3.25C5.27614 3.25 5.5 3.02614 5.5 2.75C5.5 2.47386 5.27614 2.25 5 2.25C4.72386 2.25 4.5 2.47386 4.5 2.75ZM13 2.75C13 3.85457 12.1046 4.75 11 4.75C10.909 4.75 10.8194 4.7433 10.7314 4.73145L9.57031 6.76172C9.68657 6.90897 9.78192 7.0733 9.85352 7.25H12.1465C12.4433 6.51725 13.1608 6 14 6C15.1046 6 16 6.89543 16 8C16 9.10457 15.1046 10 14 10C13.1608 10 12.4433 9.48275 12.1465 8.75H9.85352C9.55673 9.48275 8.8392 10 8 10C7.90903 10 7.81942 9.9933 7.73145 9.98145L6.57031 12.0117C6.68657 12.159 6.78192 12.3233 6.85352 12.5H9.14648C9.44327 11.7672 10.1608 11.25 11 11.25C12.1046 11.25 13 12.1454 13 13.25C13 14.3546 12.1046 15.25 11 15.25C10.1608 15.25 9.44327 14.7328 9.14648 14H6.85352C6.55673 14.7328 5.8392 15.25 5 15.25C3.89543 15.25 3 14.3546 3 13.25C3 12.1454 3.89543 11.25 5 11.25C5.0906 11.25 5.17995 11.2558 5.26758 11.2676L6.42871 9.2373C6.31283 9.09033 6.21791 8.92627 6.14648 8.75H3.85352C3.55673 9.48275 2.8392 10 2 10C0.89543 10 0 9.10457 0 8C0 6.89543 0.89543 6 2 6C2.8392 6 3.55673 6.51725 3.85352 7.25H6.14648C6.44327 6.51725 7.1608 6 8 6C8.0906 6 8.17995 6.00582 8.26758 6.01758L9.42871 3.9873C9.31283 3.84033 9.21791 3.67627 9.14648 3.5H6.85352C6.55673 4.23275 5.8392 4.75 5 4.75C3.89543 4.75 3 3.85457 3 2.75C3 1.64543 3.89543 0.75 5 0.75C5.8392 0.75 6.55673 1.26725 6.85352 2H9.14648C9.44327 1.26725 10.1608 0.75 11 0.75C12.1046 0.75 13 1.64543 13 2.75Z" fill="#292A2E"/>
</svg>
