<svg width="16" height="16" viewBox="0 0 16 16" fill="none" xmlns="http://www.w3.org/2000/svg">
<path d="M12 8.5V5.25C12 4.73096 11.7938 4.23324 11.4268 3.86621L8.13379 0.573242C7.76676 0.206236 7.26904 0 6.75 0H2C0.89543 0 0 0.895431 0 2V14C1.28853e-07 15.1046 0.89543 16 2 16H2.5V14.5H2C1.72386 14.5 1.5 14.2761 1.5 14V2C1.5 1.72386 1.72386 1.5 2 1.5H6V5.25C6 5.66421 6.33579 6 6.75 6H10.5V8.5H12ZM7.5 2.06055L9.93945 4.5H7.5V2.06055Z" fill="#292A2E"/>
<path d="M5.125 10C5.40139 10 5.65553 10.1519 5.78613 10.3955L7 12.6611L8.21387 10.3955C8.34447 10.1519 8.59861 10 8.875 10H9.25C9.66421 10 10 10.3358 10 10.75V16H8.5V13.0381L7.66113 14.6045C7.53053 14.8481 7.27639 15 7 15C6.72361 15 6.46947 14.8481 6.33887 14.6045L5.5 13.0381V16H4V10.75C4 10.3358 4.33579 10 4.75 10H5.125ZM14.25 10V13.042L14.8145 12.6396C15.1241 12.4187 15.5501 12.4643 15.8057 12.7461C16.0613 13.0282 16.0651 13.4577 15.8145 13.7441L14.0645 15.7441C13.922 15.9068 13.7162 16 13.5 16C13.2838 16 13.078 15.9068 12.9355 15.7441L11.1855 13.7441C10.9349 13.4577 10.9387 13.0282 11.1943 12.7461C11.4499 12.4643 11.8759 12.4187 12.1855 12.6396L12.75 13.042V10H14.25Z" fill="#292A2E"/>
</svg>
