<svg width="16" height="16" viewBox="0 0 16 16" fill="none" xmlns="http://www.w3.org/2000/svg">
<path d="M2.78039 8.5327C2.92662 8.38645 2.99964 8.19638 2.99998 8.00375C3.00021 7.81033 2.92721 7.61886 2.78039 7.47204C2.48751 7.17916 2.01263 7.17918 1.71973 7.47204C1.42684 7.76493 1.42684 8.23981 1.71973 8.5327C2.01262 8.82559 2.4875 8.82559 2.78039 8.5327ZM8.53047 14.2828C8.8233 13.9899 8.82317 13.515 8.53047 13.2221C8.23757 12.9292 7.7627 12.9292 7.46981 13.2221C7.17699 13.515 7.17694 13.9899 7.46981 14.2828C7.76269 14.5755 8.23763 14.5755 8.53047 14.2828ZM8.53047 2.78262C8.82325 2.48972 8.82332 2.01482 8.53047 1.72196C8.23761 1.42911 7.76271 1.42918 7.46981 1.72196C7.17691 2.01486 7.17691 2.48973 7.46981 2.78262C7.7627 3.07552 8.23757 3.07552 8.53047 2.78262ZM14.2805 8.5327C14.5734 8.23987 14.5732 7.76495 14.2805 7.47204C13.9877 7.17915 13.5128 7.17915 13.2199 7.47204C13.0731 7.61885 12.9994 7.80966 12.9996 8.00306C12.9999 8.19581 13.0735 8.38636 13.2199 8.5327C13.5128 8.8254 13.9877 8.82553 14.2805 8.5327ZM15.3412 9.59336C14.6489 10.2857 13.6189 10.4292 12.7828 10.0305L10.0296 12.7836C10.4287 13.6198 10.2836 14.6509 9.59113 15.3434C8.7125 16.222 7.28782 16.2219 6.40915 15.3434C5.53049 14.4648 5.53054 13.0401 6.40915 12.1615C7.10177 11.4688 8.13267 11.3237 8.96896 11.723L11.7214 8.9705C11.6875 8.89944 11.6577 8.82721 11.6317 8.75367L4.36793 8.75298C4.25954 9.0594 4.086 9.3484 3.84105 9.59336C2.96237 10.472 1.53775 10.472 0.659071 9.59336C-0.219609 8.71468 -0.219609 7.29006 0.659071 6.41138C1.35157 5.71892 2.38201 5.57456 3.21819 5.97358L5.97135 3.22042C5.57236 2.38424 5.71667 1.35378 6.40915 0.661303C7.28784 -0.217263 8.71249 -0.217339 9.59113 0.661303C10.4698 1.53994 10.4697 2.96459 9.59113 3.84328C8.89865 4.53576 7.86819 4.68007 7.03201 4.28108L4.27885 7.03424C4.31306 7.10596 4.34311 7.1789 4.36931 7.25314L11.6303 7.25383C11.7386 6.94644 11.9136 6.65704 12.1592 6.41138C13.0379 5.5327 14.4625 5.5327 15.3412 6.41138C16.2197 7.29007 16.2198 8.71474 15.3412 9.59336Z" fill="#292A2E"/>
</svg>
