<svg width="16" height="16" fill="none" viewBox="0 0 16 16"><path fill="currentcolor" d="M12 8.5V5.25c0-.519-.206-1.017-.573-1.384L8.134.573A1.96 1.96 0 0 0 6.75 0H2a2 2 0 0 0-2 2v12a2 2 0 0 0 2 2h.5v-1.5H2a.5.5 0 0 1-.5-.5V2a.5.5 0 0 1 .5-.5h4v3.75c0 .414.336.75.75.75h3.75v2.5zM7.5 2.06 9.94 4.5H7.5z"/><path fill="currentcolor" d="M5.125 10a.75.75 0 0 1 .661.396L7 12.66l1.214-2.265A.75.75 0 0 1 8.875 10h.375a.75.75 0 0 1 .75.75V16H8.5v-2.962l-.839 1.566a.75.75 0 0 1-1.322 0L5.5 13.039V16H4v-5.25a.75.75 0 0 1 .75-.75zm9.125 0v3.042l.565-.402a.75.75 0 0 1 1 1.104l-1.75 2a.75.75 0 0 1-1.13 0l-1.75-2a.75.75 0 0 1 1-1.104l.565.402V10z"/></svg>