<svg width="16" height="16" fill="none" viewBox="0 0 16 16"><path fill="currentcolor" d="M2.78 8.533a.746.746 0 0 0 0-1.06.75.75 0 1 0 0 1.06m5.75 5.75a.75.75 0 1 0-1.06-1.06.75.75 0 0 0 1.06 1.06m0-11.5a.75.75 0 1 0-1.06-1.061.75.75 0 0 0 1.06 1.06m5.75 5.75a.75.75 0 1 0-1.06-1.061.75.75 0 0 0 1.06 1.06m1.061 1.06a2.25 2.25 0 0 1-2.558.438l-2.753 2.753a2.25 2.25 0 1 1-1.061-1.061l2.752-2.753a2 2 0 0 1-.09-.216l-7.263-.001a2.2 2.2 0 0 1-.527.84 2.25 2.25 0 1 1-.623-3.62L5.971 3.22A2.249 2.249 0 0 1 9.591.661a2.25 2.25 0 0 1-2.559 3.62L4.279 7.034q.051.108.09.22h7.261a2.25 2.25 0 1 1 3.71 2.34"/></svg>